<svg width="351" height="67" viewBox="0 0 351 67" fill="none" xmlns="http://www.w3.org/2000/svg">
<path d="M120.475 21.4856V4.93048H123.767V6.95284H123.916C124.062 6.62884 124.274 6.29962 124.551 5.96517C124.833 5.6255 125.199 5.34331 125.648 5.11861C126.103 4.88867 126.667 4.77371 127.341 4.77371C128.219 4.77371 129.029 5.00364 129.771 5.4635C130.513 5.91814 131.106 6.60533 131.551 7.52505C131.995 8.43956 132.217 9.58661 132.217 10.9662C132.217 12.3092 132 13.4432 131.566 14.3682C131.138 15.2879 130.552 15.9855 129.81 16.4611C129.074 16.9314 128.248 17.1665 127.333 17.1665C126.685 17.1665 126.134 17.0594 125.679 16.8451C125.23 16.6309 124.862 16.3618 124.574 16.0378C124.287 15.7086 124.067 15.3767 123.916 15.0423H123.814V21.4856H120.475ZM123.743 10.9505C123.743 11.6664 123.843 12.2909 124.041 12.8239C124.24 13.357 124.527 13.7724 124.903 14.0703C125.28 14.3629 125.737 14.5092 126.275 14.5092C126.819 14.5092 127.279 14.3603 127.655 14.0624C128.031 13.7594 128.316 13.3413 128.509 12.8083C128.708 12.27 128.807 11.6508 128.807 10.9505C128.807 10.2555 128.71 9.64409 128.517 9.11629C128.324 8.58849 128.039 8.17566 127.663 7.87779C127.286 7.57992 126.824 7.43099 126.275 7.43099C125.732 7.43099 125.272 7.5747 124.896 7.86211C124.525 8.14953 124.24 8.55714 124.041 9.08494C123.843 9.61273 123.743 10.2346 123.743 10.9505Z" fill="#606060"/>
<path d="M134.443 16.9706V4.93048H137.68V7.03122H137.806C138.025 6.28394 138.394 5.71956 138.911 5.33809C139.428 4.95138 140.024 4.75803 140.698 4.75803C140.865 4.75803 141.046 4.76848 141.239 4.78938C141.432 4.81029 141.602 4.83903 141.749 4.87561V7.8386C141.592 7.79157 141.375 7.74976 141.098 7.71318C140.821 7.6766 140.568 7.65831 140.338 7.65831C139.846 7.65831 139.407 7.76544 139.021 7.97969C138.639 8.18872 138.336 8.48136 138.111 8.85762C137.892 9.23387 137.782 9.6676 137.782 10.1588V16.9706H134.443Z" fill="#606060"/>
<path d="M148.355 17.2057C147.137 17.2057 146.084 16.947 145.196 16.4297C144.312 15.9071 143.63 15.1808 143.15 14.2506C142.669 13.3152 142.429 12.2308 142.429 10.9976C142.429 9.75383 142.669 8.66688 143.15 7.7367C143.63 6.80129 144.312 6.07491 145.196 5.55757C146.084 5.03499 147.137 4.77371 148.355 4.77371C149.572 4.77371 150.623 5.03499 151.506 5.55757C152.394 6.07491 153.079 6.80129 153.559 7.7367C154.04 8.66688 154.281 9.75383 154.281 10.9976C154.281 12.2308 154.04 13.3152 153.559 14.2506C153.079 15.1808 152.394 15.9071 151.506 16.4297C150.623 16.947 149.572 17.2057 148.355 17.2057ZM148.37 14.619C148.924 14.619 149.387 14.4622 149.758 14.1487C150.129 13.8299 150.408 13.3962 150.596 12.8475C150.79 12.2988 150.886 11.6743 150.886 10.974C150.886 10.2738 150.79 9.64931 150.596 9.10061C150.408 8.55191 150.129 8.11817 149.758 7.79941C149.387 7.48064 148.924 7.32125 148.37 7.32125C147.811 7.32125 147.341 7.48064 146.959 7.79941C146.583 8.11817 146.298 8.55191 146.105 9.10061C145.917 9.64931 145.823 10.2738 145.823 10.974C145.823 11.6743 145.917 12.2988 146.105 12.8475C146.298 13.3962 146.583 13.8299 146.959 14.1487C147.341 14.4622 147.811 14.619 148.37 14.619Z" fill="#606060"/>
<path d="M159.791 10.0099V16.9706H156.452V0.917116H159.697V7.05474H159.838C160.11 6.34404 160.549 5.7875 161.155 5.38512C161.761 4.97751 162.521 4.77371 163.436 4.77371C164.272 4.77371 165.001 4.95661 165.623 5.32241C166.25 5.68298 166.736 6.20294 167.081 6.88229C167.431 7.55641 167.604 8.36378 167.598 9.30442V16.9706H164.259V9.90015C164.264 9.1581 164.076 8.58065 163.695 8.16782C163.318 7.75499 162.791 7.54857 162.111 7.54857C161.657 7.54857 161.254 7.64525 160.904 7.8386C160.559 8.03195 160.287 8.31414 160.089 8.68517C159.896 9.05097 159.796 9.49254 159.791 10.0099Z" fill="#606060"/>
<path d="M170.226 16.9706V4.93048H173.565V16.9706H170.226ZM171.904 3.37844C171.407 3.37844 170.981 3.21383 170.626 2.8846C170.276 2.55016 170.101 2.15039 170.101 1.6853C170.101 1.22543 170.276 0.830892 170.626 0.501671C170.981 0.167224 171.407 0 171.904 0C172.4 0 172.823 0.167224 173.174 0.501671C173.529 0.830892 173.707 1.22543 173.707 1.6853C173.707 2.15039 173.529 2.55016 173.174 2.8846C172.823 3.21383 172.4 3.37844 171.904 3.37844Z" fill="#606060"/>
<path d="M176.303 16.9706V0.917116H179.642V6.95284H179.744C179.891 6.62884 180.102 6.29962 180.379 5.96517C180.661 5.6255 181.027 5.34331 181.477 5.11861C181.931 4.88867 182.496 4.77371 183.17 4.77371C184.048 4.77371 184.858 5.00364 185.6 5.4635C186.342 5.91814 186.935 6.60533 187.379 7.52505C187.823 8.43956 188.045 9.58661 188.045 10.9662C188.045 12.3092 187.828 13.4432 187.395 14.3682C186.966 15.2879 186.381 15.9855 185.639 16.4611C184.902 16.9314 184.076 17.1665 183.162 17.1665C182.514 17.1665 181.963 17.0594 181.508 16.8451C181.058 16.6309 180.69 16.3618 180.403 16.0378C180.115 15.7086 179.896 15.3767 179.744 15.0423H179.595V16.9706H176.303ZM179.572 10.9505C179.572 11.6664 179.671 12.2909 179.87 12.8239C180.068 13.357 180.356 13.7724 180.732 14.0703C181.108 14.3629 181.565 14.5092 182.104 14.5092C182.647 14.5092 183.107 14.3603 183.483 14.0624C183.859 13.7594 184.144 13.3413 184.338 12.8083C184.536 12.27 184.635 11.6508 184.635 10.9505C184.635 10.2555 184.539 9.64409 184.345 9.11629C184.152 8.58849 183.867 8.17566 183.491 7.87779C183.115 7.57992 182.652 7.43099 182.104 7.43099C181.56 7.43099 181.1 7.5747 180.724 7.86211C180.353 8.14953 180.068 8.55714 179.87 9.08494C179.671 9.61273 179.572 10.2346 179.572 10.9505Z" fill="#606060"/>
<path d="M190.273 16.9706V4.93048H193.613V16.9706H190.273ZM191.951 3.37844C191.454 3.37844 191.029 3.21383 190.673 2.8846C190.323 2.55016 190.148 2.15039 190.148 1.6853C190.148 1.22543 190.323 0.830892 190.673 0.501671C191.029 0.167224 191.454 0 191.951 0C192.447 0 192.871 0.167224 193.221 0.501671C193.576 0.830892 193.754 1.22543 193.754 1.6853C193.754 2.15039 193.576 2.55016 193.221 2.8846C192.871 3.21383 192.447 3.37844 191.951 3.37844Z" fill="#606060"/>
<path d="M202.692 4.93048V7.43883H195.441V4.93048H202.692ZM197.087 2.04587H200.426V13.2707C200.426 13.5791 200.473 13.8194 200.567 13.9919C200.662 14.1591 200.792 14.2767 200.959 14.3446C201.132 14.4126 201.33 14.4465 201.555 14.4465C201.712 14.4465 201.869 14.4335 202.025 14.4073C202.182 14.376 202.302 14.3525 202.386 14.3368L202.911 16.8216C202.744 16.8739 202.509 16.934 202.206 17.0019C201.903 17.0751 201.534 17.1195 201.1 17.1352C200.296 17.1665 199.59 17.0594 198.984 16.8138C198.383 16.5682 197.915 16.1867 197.581 15.6694C197.246 15.152 197.082 14.4988 197.087 13.7097V2.04587Z" fill="#606060"/>
<path d="M210.225 17.2057C208.986 17.2057 207.92 16.9549 207.026 16.4532C206.138 15.9463 205.453 15.2304 204.973 14.3054C204.492 13.3753 204.252 12.2752 204.252 11.0054C204.252 9.76689 204.492 8.67994 204.973 7.74453C205.453 6.80913 206.13 6.08014 207.003 5.55757C207.881 5.03499 208.91 4.77371 210.091 4.77371C210.886 4.77371 211.625 4.90174 212.31 5.1578C212.999 5.40863 213.6 5.7875 214.113 6.29439C214.63 6.80129 215.032 7.43883 215.32 8.20701C215.607 8.96997 215.751 9.86357 215.751 10.8878V11.8049H205.584V9.73554H212.608C212.608 9.25477 212.503 8.82887 212.294 8.45785C212.085 8.08682 211.795 7.79679 211.424 7.58776C211.058 7.37351 210.632 7.26638 210.146 7.26638C209.639 7.26638 209.19 7.38396 208.798 7.61912C208.411 7.84905 208.108 8.15998 207.889 8.55191C207.669 8.93861 207.557 9.36974 207.552 9.84528V11.8128C207.552 12.4085 207.661 12.9232 207.881 13.357C208.106 13.7907 208.422 14.1252 208.829 14.3603C209.237 14.5955 209.72 14.713 210.279 14.713C210.65 14.713 210.99 14.6608 211.298 14.5563C211.607 14.4518 211.871 14.295 212.09 14.086C212.31 13.8769 212.477 13.6209 212.592 13.3178L215.68 13.5216C215.523 14.2636 215.202 14.9116 214.716 15.4656C214.235 16.0143 213.613 16.4428 212.851 16.7511C212.093 17.0542 211.217 17.2057 210.225 17.2057Z" fill="#606060"/>
<path d="M222.367 17.1665C221.452 17.1665 220.624 16.9314 219.882 16.4611C219.145 15.9855 218.56 15.2879 218.126 14.3682C217.697 13.4432 217.483 12.3092 217.483 10.9662C217.483 9.58661 217.705 8.43956 218.149 7.52505C218.594 6.60533 219.184 5.91814 219.921 5.4635C220.663 5.00364 221.476 4.77371 222.359 4.77371C223.033 4.77371 223.595 4.88867 224.044 5.11861C224.499 5.34331 224.864 5.6255 225.141 5.96517C225.424 6.29962 225.638 6.62884 225.784 6.95284H225.886V0.917116H229.218V16.9706H225.925V15.0423H225.784C225.627 15.3767 225.405 15.7086 225.118 16.0378C224.836 16.3618 224.467 16.6309 224.013 16.8451C223.563 17.0594 223.015 17.1665 222.367 17.1665ZM223.425 14.5092C223.963 14.5092 224.418 14.3629 224.789 14.0703C225.165 13.7724 225.452 13.357 225.651 12.8239C225.855 12.2909 225.957 11.6664 225.957 10.9505C225.957 10.2346 225.857 9.61273 225.659 9.08494C225.46 8.55714 225.173 8.14953 224.797 7.86211C224.42 7.5747 223.963 7.43099 223.425 7.43099C222.876 7.43099 222.414 7.57992 222.037 7.87779C221.661 8.17566 221.376 8.58849 221.183 9.11629C220.99 9.64409 220.893 10.2555 220.893 10.9505C220.893 11.6508 220.99 12.27 221.183 12.8083C221.382 13.3413 221.666 13.7594 222.037 14.0624C222.414 14.3603 222.876 14.5092 223.425 14.5092Z" fill="#606060"/>
<path d="M0 37.0039V28.81H32.5563V37.0039H21.2896V66.268H11.2667V37.0039H0Z" fill="#CC5252"/>
<path d="M70.9106 47.539C70.9106 51.7091 70.0997 55.2269 68.478 58.0924C66.8563 60.9456 64.6676 63.11 61.9119 64.5854C59.1562 66.0486 56.0834 66.7802 52.6937 66.7802C49.2795 66.7802 46.1946 66.0425 43.4389 64.5671C40.6954 63.0795 38.5128 60.909 36.8911 58.0558C35.2815 55.1904 34.4768 51.6848 34.4768 47.539C34.4768 43.3689 35.2815 39.8572 36.8911 37.0039C38.5128 34.1385 40.6954 31.9742 43.4389 30.511C46.1946 29.0356 49.2795 28.2979 52.6937 28.2979C56.0834 28.2979 59.1562 29.0356 61.9119 30.511C64.6676 31.9742 66.8563 34.1385 68.478 37.0039C70.0997 39.8572 70.9106 43.3689 70.9106 47.539ZM60.4487 47.539C60.4487 45.2954 60.1499 43.4055 59.5524 41.8691C58.9672 40.3205 58.0953 39.15 56.937 38.3574C55.7908 37.5526 54.3764 37.1503 52.6937 37.1503C51.011 37.1503 49.5905 37.5526 48.4321 38.3574C47.2859 39.15 46.4141 40.3205 45.8166 41.8691C45.2313 43.4055 44.9387 45.2954 44.9387 47.539C44.9387 49.7826 45.2313 51.6787 45.8166 53.2272C46.4141 54.7636 47.2859 55.9342 48.4321 56.7389C49.5905 57.5315 51.011 57.9278 52.6937 57.9278C54.3764 57.9278 55.7908 57.5315 56.937 56.7389C58.0953 55.9342 58.9672 54.7636 59.5524 53.2272C60.1499 51.6787 60.4487 49.7826 60.4487 47.539Z" fill="#CC5252"/>
<path d="M84.0017 28.81L90.1471 39.7109H90.4398L96.6584 28.81H107.998L96.8047 47.539L108.437 66.268H96.8047L90.4398 55.1477H90.1471L83.7822 66.268H72.2229L83.709 47.539L72.5887 28.81H84.0017Z" fill="#CC5252"/>
<path d="M122.553 28.81V66.268H112.383V28.81H122.553Z" fill="#CC5252"/>
<path d="M162.343 42.8568H152.027C151.954 42.0032 151.759 41.2289 151.442 40.5339C151.137 39.8389 150.71 39.2414 150.161 38.7415C149.625 38.2294 148.973 37.8392 148.204 37.5709C147.436 37.2905 146.564 37.1503 145.589 37.1503C143.882 37.1503 142.437 37.5648 141.254 38.394C140.084 39.2231 139.193 40.412 138.584 41.9605C137.986 43.5091 137.688 45.3686 137.688 47.539C137.688 49.8314 137.992 51.7518 138.602 53.3004C139.224 54.8368 140.12 55.9951 141.291 56.7755C142.461 57.5437 143.87 57.9278 145.516 57.9278C146.455 57.9278 147.296 57.8119 148.04 57.5803C148.784 57.3364 149.43 56.9889 149.979 56.5377C150.527 56.0866 150.972 55.544 151.314 54.9099C151.667 54.2637 151.905 53.5382 152.027 52.7334L162.343 52.8066C162.221 54.3917 161.776 56.0073 161.007 57.6534C160.239 59.2873 159.148 60.7993 157.733 62.1894C156.331 63.5672 154.594 64.6768 152.521 65.5181C150.448 66.3595 148.04 66.7802 145.296 66.7802C141.858 66.7802 138.773 66.0425 136.041 64.5671C133.322 63.0917 131.17 60.9212 129.585 58.0558C128.012 55.1904 127.226 51.6848 127.226 47.539C127.226 43.3689 128.03 39.8572 129.64 37.0039C131.249 34.1385 133.42 31.9742 136.151 30.511C138.883 29.0356 141.931 28.2979 145.296 28.2979C147.662 28.2979 149.838 28.621 151.826 29.2672C153.813 29.9135 155.557 30.8585 157.057 32.1022C158.557 33.3337 159.764 34.8518 160.678 36.6564C161.593 38.461 162.147 40.5278 162.343 42.8568Z" fill="#CC5252"/>
<path d="M203.244 47.539C203.244 51.7091 202.433 55.2269 200.811 58.0924C199.189 60.9456 197.001 63.11 194.245 64.5854C191.489 66.0486 188.417 66.7802 185.027 66.7802C181.613 66.7802 178.528 66.0425 175.772 64.5671C173.029 63.0795 170.846 60.909 169.224 58.0558C167.615 55.1904 166.81 51.6848 166.81 47.539C166.81 43.3689 167.615 39.8572 169.224 37.0039C170.846 34.1385 173.029 31.9742 175.772 30.511C178.528 29.0356 181.613 28.2979 185.027 28.2979C188.417 28.2979 191.489 29.0356 194.245 30.511C197.001 31.9742 199.189 34.1385 200.811 37.0039C202.433 39.8572 203.244 43.3689 203.244 47.539ZM192.782 47.539C192.782 45.2954 192.483 43.4055 191.886 41.8691C191.3 40.3205 190.428 39.15 189.27 38.3574C188.124 37.5526 186.71 37.1503 185.027 37.1503C183.344 37.1503 181.924 37.5526 180.765 38.3574C179.619 39.15 178.747 40.3205 178.15 41.8691C177.564 43.4055 177.272 45.2954 177.272 47.539C177.272 49.7826 177.564 51.6787 178.15 53.2272C178.747 54.7636 179.619 55.9342 180.765 56.7389C181.924 57.5315 183.344 57.9278 185.027 57.9278C186.71 57.9278 188.124 57.5315 189.27 56.7389C190.428 55.9342 191.3 54.7636 191.886 53.2272C192.483 51.6787 192.782 49.7826 192.782 47.539Z" fill="#CC5252"/>
<path d="M207.949 66.268V28.81H218.118V58.0741H233.262V66.268H207.949Z" fill="#CC5252"/>
<path d="M272.202 47.539C272.202 51.7091 271.391 55.2269 269.769 58.0924C268.148 60.9456 265.959 63.11 263.203 64.5854C260.447 66.0486 257.375 66.7802 253.985 66.7802C250.571 66.7802 247.486 66.0425 244.73 64.5671C241.987 63.0795 239.804 60.909 238.182 58.0558C236.573 55.1904 235.768 51.6848 235.768 47.539C235.768 43.3689 236.573 39.8572 238.182 37.0039C239.804 34.1385 241.987 31.9742 244.73 30.511C247.486 29.0356 250.571 28.2979 253.985 28.2979C257.375 28.2979 260.447 29.0356 263.203 30.511C265.959 31.9742 268.148 34.1385 269.769 37.0039C271.391 39.8572 272.202 43.3689 272.202 47.539ZM261.74 47.539C261.74 45.2954 261.441 43.4055 260.844 41.8691C260.258 40.3205 259.387 39.15 258.228 38.3574C257.082 37.5526 255.668 37.1503 253.985 37.1503C252.302 37.1503 250.882 37.5526 249.723 38.3574C248.577 39.15 247.705 40.3205 247.108 41.8691C246.523 43.4055 246.23 45.2954 246.23 47.539C246.23 49.7826 246.523 51.6787 247.108 53.2272C247.705 54.7636 248.577 55.9342 249.723 56.7389C250.882 57.5315 252.302 57.9278 253.985 57.9278C255.668 57.9278 257.082 57.5315 258.228 56.7389C259.387 55.9342 260.258 54.7636 260.844 53.2272C261.441 51.6787 261.74 49.7826 261.74 47.539Z" fill="#CC5252"/>
<path d="M301.233 41.1741C301.074 40.5278 300.824 39.9608 300.483 39.4731C300.141 38.9732 299.715 38.5525 299.203 38.2111C298.703 37.8575 298.117 37.5953 297.447 37.4246C296.788 37.2417 296.063 37.1503 295.27 37.1503C293.563 37.1503 292.106 37.5587 290.899 38.3757C289.704 39.1926 288.789 40.3693 288.155 41.9057C287.533 43.442 287.223 45.2954 287.223 47.4659C287.223 49.6607 287.521 51.5384 288.119 53.0992C288.716 54.6599 289.606 55.8549 290.789 56.684C291.972 57.5132 293.441 57.9278 295.197 57.9278C296.746 57.9278 298.032 57.7022 299.056 57.251C300.093 56.7999 300.867 56.1597 301.379 55.3306C301.891 54.5014 302.147 53.526 302.147 52.4042L303.903 52.5871H295.343V45.3442H311.951V50.5386C311.951 53.9527 311.225 56.873 309.774 59.2995C308.335 61.7138 306.348 63.5672 303.812 64.8597C301.288 66.14 298.392 66.7802 295.124 66.7802C291.478 66.7802 288.277 66.0059 285.522 64.4573C282.766 62.9088 280.614 60.7018 279.065 57.8363C277.529 54.9709 276.761 51.5628 276.761 47.6122C276.761 44.5151 277.23 41.7715 278.169 39.3816C279.12 36.9917 280.437 34.9737 282.12 33.3276C283.802 31.6693 285.747 30.4195 287.954 29.5782C290.161 28.7246 292.527 28.2979 295.051 28.2979C297.27 28.2979 299.331 28.6149 301.233 29.249C303.147 29.8708 304.836 30.7609 306.299 31.9193C307.774 33.0655 308.963 34.425 309.866 35.998C310.768 37.5709 311.317 39.2963 311.512 41.1741H301.233Z" fill="#CC5252"/>
<path d="M313.396 28.81H324.735L332.051 44.0273H332.344L339.66 28.81H351L337.246 54.4892V66.268H327.15V54.4892L313.396 28.81Z" fill="#CC5252"/>
</svg>
