<svg width="75" height="64" viewBox="0 0 75 64" fill="none" xmlns="http://www.w3.org/2000/svg">
<path d="M26.7502 0.465555C25.6252 0.804146 24.719 1.41977 23.469 2.68179C21.9378 4.19006 21.5628 4.80569 20.7816 7.11426L19.8441 9.823H13.8755C6.3444 9.823 5.31317 10.0692 2.78198 12.5625C-0.124213 15.4252 0.000784222 14.4402 0.000784222 36.9103C0.000784222 59.3805 -0.124213 58.3955 2.78198 61.2582C5.75066 64.1824 3.43821 63.9977 37.5 63.9977C71.5618 63.9977 69.2493 64.1824 72.218 61.2582C75.1242 58.3955 74.9992 59.3805 74.9992 36.9103C74.9992 14.4402 75.1242 15.4252 72.218 12.5625C69.6868 10.0692 68.6556 9.823 61.1245 9.823H55.1559L54.2184 7.11426C53.4372 4.80569 53.0622 4.19006 51.5622 2.68179C48.906 0.0654006 48.3748 -0.0269424 37.375 0.00383867C30.2189 0.00383867 27.9689 0.126963 26.7502 0.465555ZM47.0311 5.39053C48.406 6.03693 48.781 6.62177 49.9685 10.2847C51.531 14.9634 51.0622 14.748 59.6245 14.748C67.5931 14.748 68.3431 14.9019 69.4368 16.9334C69.9681 17.9184 69.9993 19.1497 69.9993 36.9103C69.9993 54.671 69.9681 55.9023 69.4368 56.8872C69.1243 57.4721 68.3744 58.2108 67.7806 58.5186C66.7806 59.0419 65.2182 59.0727 37.5 59.0727C9.78183 59.0727 8.21936 59.0419 7.21938 58.5186C6.62565 58.2108 5.87566 57.4721 5.56317 56.8872C5.03193 55.9023 5.00068 54.671 5.00068 36.9103C5.00068 19.1497 5.03193 17.9184 5.56317 16.9334C6.6569 14.9019 7.40688 14.748 15.3755 14.748C23.9378 14.748 23.469 14.9634 25.0315 10.2847C26.8752 4.71334 26.3752 4.92881 37.4375 4.89803C44.6249 4.89803 46.1561 4.99037 47.0311 5.39053Z" fill="white"/>
<path d="M32.8751 17.8261C29.4689 18.7187 27.0315 20.1039 24.3753 22.751C21.6566 25.3982 20.2816 27.7684 19.3754 31.2466C18.2504 35.5867 18.8129 40.2962 21.0003 44.3901C22.3128 46.8834 26.1252 50.6387 28.6564 51.9315C32.8126 54.0862 37.5937 54.6402 41.9999 53.5321C45.5311 52.6395 47.9373 51.2851 50.6247 48.6071C53.3434 45.96 54.7184 43.5898 55.6246 40.1116C56.7496 35.7714 56.1871 31.0619 53.9997 26.968C52.6872 24.4748 48.8748 20.7195 46.3436 19.4267C42.2186 17.3028 37.25 16.7179 32.8751 17.8261ZM40.3749 22.474C47.406 23.9515 52.2184 30.908 50.9997 37.8338C49.9997 43.6206 45.5623 47.9915 39.6875 48.9765C30.5939 50.5156 22.4378 42.4817 24.0003 33.5244C25.344 25.8599 32.7188 20.8734 40.3749 22.474Z" fill="white"/>
<path d="M60.7808 20.4425C59.2183 21.9507 60.312 24.5979 62.4995 24.5979C63.0932 24.5979 63.7495 24.3209 64.2182 23.8284C64.7182 23.3667 64.9994 22.7203 64.9994 22.1354C64.9994 21.5506 64.7182 20.9042 64.2182 20.4425C63.7495 19.95 63.0932 19.6729 62.4995 19.6729C61.9057 19.6729 61.2495 19.95 60.7808 20.4425Z" fill="white"/>
</svg>
